<svg viewBox="0 0 1080 1080" fill="none" xmlns="http://www.w3.org/2000/svg">      <defs>  <filter id="filter" x="-20%" y="-20%" width="140%" height="140%" filterUnits="objectBoundingBox" primitiveUnits="userSpaceOnUse" color-interpolation-filters="linearRGB">    <feMorphology operator="dilate" radius="20 20" in="SourceAlpha" result="morphology"/>    <feFlood flood-color="#ffffff" flood-opacity="1" result="flood"/>    <feComposite in="flood" in2="morphology" operator="in" result="composite"/>    <feMerge result="merge">          <feMergeNode in="composite" result="mergeNode"/>      <feMergeNode in="SourceGraphic" result="mergeNode1"/>      </feMerge>  </filter></defs>      <g id="notion-avatar" filter="url(#filter)">        <g id="notion-avatar-face" fill="#ffffff">      <!--?xml version="1.0" encoding="UTF-8"?-->    <title>Face/ 1</title>    <g id="Face/-1" stroke="none" stroke-width="1" fill-rule="evenodd" stroke-linecap="round" stroke-linejoin="round">        <path d="M532,379 C664.54834,379 772,486.45166 772,619 C772,751.54834 664.54834,879 532,879 C435.13263,879 351.668898,801.612202 313.752775,718.980575 L313.322946,718.989282 L312,719 C267.81722,719 232,683.18278 232,639 C232,599.134956 261.158843,566.080325 299.312086,560.00055 C325.599297,455.979213 419.809919,379 532,379 Z M295.858895,624.545187 L304.141105,655.454813" id="Path" stroke="#000000" stroke-width="24"/>    </g>    </g><g id="notion-avatar-nose">      <!--?xml version="1.0" encoding="UTF-8"?-->    <title>Nose/ 4</title>    <g id="Nose/-4" stroke="none" stroke-width="1" fill="none" fill-rule="evenodd" stroke-linecap="round" stroke-linejoin="round">        <path d="M636.843426,596.000252 C661.659687,637.453214 673.277876,666.226337 671.697992,682.319621 C670.118108,698.412905 655.181344,703.444023 626.8877,697.412976" id="Line" stroke="#000000" stroke-width="16" transform="translate(649.363766, 647.939652) rotate(1.032339) translate(-649.363766, -647.939652) "/>    </g>    </g><g id="notion-avatar-mouth">      <!--?xml version="1.0" encoding="UTF-8"?-->    <title>Mouth/ 10</title>    <g id="Mouth/-10" stroke="none" stroke-width="1" fill="none" fill-rule="evenodd" stroke-linecap="round" stroke-linejoin="round">        <path d="M549,759 C576.33038,765.666667 599.663714,769 619,769 C638.336286,769 655.002953,765.666667 669,759 C656.33038,792.333333 632.997047,809 599,809 C565.002953,809 548.336286,792.333333 549,759 Z" id="Path" stroke="#000000" stroke-width="16"/>    </g>    </g><g id="notion-avatar-eyes">      <!--?xml version="1.0" encoding="UTF-8"?-->    <title>Eyes/ 8</title>    <g id="Eyes/-8" stroke="none" stroke-width="1" fill="none" fill-rule="evenodd">        <path d="M570,516 C578.836556,516 586,526.745166 586,540 C586,553.254834 578.836556,564 570,564 C561.163444,564 554,553.254834 554,540 C554,526.745166 561.163444,516 570,516 Z M708,516 C716.836556,516 724,526.745166 724,540 C724,553.254834 716.836556,564 708,564 C699.163444,564 692,553.254834 692,540 C692,526.745166 699.163444,516 708,516 Z" id="Combined-Shape" fill="#000000"/>    </g>    </g><g id="notion-avatar-eyebrows">      <g id="Eyebrows/ 12"><g id="Group"><path id="Path" fill-rule="evenodd" clip-rule="evenodd" d="M681 505.316C681 505.316 698.641 492.863 706.392 490.578C714.144 488.294 738 489.316 738 489.316L755 494.913C755 494.913 730.25 494.897 716.549 497.08C702.848 499.263 681 505.316 681 505.316Z" fill="black" stroke="black" stroke-width="8" stroke-linecap="round" stroke-linejoin="round"/><path id="Path_2" fill-rule="evenodd" clip-rule="evenodd" d="M597 505.316C597 505.316 579.359 492.863 571.608 490.578C563.856 488.294 540 489.316 540 489.316L523 494.913C523 494.913 547.75 494.897 561.451 497.08C575.152 499.263 597 505.316 597 505.316Z" fill="black" stroke="black" stroke-width="8" stroke-linecap="round" stroke-linejoin="round"/></g></g>    </g><g id="notion-avatar-glasses">      <g id="Glasses/ 13"><g id="Group"><path id="Path" d="M594.966 482.529H684.378" stroke="black" stroke-width="8" stroke-linecap="round" stroke-linejoin="round"/><path id="Path_2" d="M593 517.765C593 517.765 615.694 501 638 501C660.306 501 682.412 517.765 682.412 517.765" stroke="black" stroke-width="8" stroke-linecap="round" stroke-linejoin="round"/><path id="Path_3" d="M510.484 517.569L293.827 555.771" stroke="black" stroke-width="16" stroke-linecap="round" stroke-linejoin="round"/><g id="Rectangle"><path id="Mask" fill-rule="evenodd" clip-rule="evenodd" d="M470.242 498.62C502.983 452.135 598.089 462.262 619.362 504.282C640.636 546.302 563.647 605 516.916 605C470.186 605 437.501 545.106 470.242 498.62Z" fill="#0C0C0C"/><mask id="mask0_0_1173" style="mask-type:alpha" maskUnits="userSpaceOnUse" x="457" y="468" width="166" height="137"><path id="Mask_2" fill-rule="evenodd" clip-rule="evenodd" d="M470.242 498.62C502.983 452.135 598.089 462.262 619.362 504.282C640.636 546.302 563.647 605 516.916 605C470.186 605 437.501 545.106 470.242 498.62Z" fill="white"/></mask><g mask="url(#mask0_0_1173)"><rect id="Rectangle_2" x="549.624" y="439.067" width="210" height="28" transform="rotate(60 549.624 439.067)" fill="white"/></g></g><g id="Rectangle_3"><path id="Mask_3" fill-rule="evenodd" clip-rule="evenodd" d="M804.758 498.62C772.017 452.135 676.911 462.262 655.638 504.282C634.364 546.302 711.353 605 758.084 605C804.814 605 837.499 545.106 804.758 498.62Z" fill="#0C0C0C"/><mask id="mask1_0_1173" style="mask-type:alpha" maskUnits="userSpaceOnUse" x="652" y="468" width="166" height="137"><path id="Mask_4" fill-rule="evenodd" clip-rule="evenodd" d="M804.758 498.62C772.017 452.135 676.911 462.262 655.638 504.282C634.364 546.302 711.353 605 758.084 605C804.814 605 837.499 545.106 804.758 498.62Z" fill="white"/></mask><g mask="url(#mask1_0_1173)"><rect id="Rectangle_4" x="739.624" y="439.067" width="210" height="28" transform="rotate(60 739.624 439.067)" fill="white"/></g></g><path id="Path_4" fill-rule="evenodd" clip-rule="evenodd" d="M470.242 498.62C502.983 452.135 598.089 462.262 619.362 504.282C640.636 546.302 563.647 605 516.916 605C470.186 605 437.501 545.106 470.242 498.62Z" stroke="black" stroke-width="8" stroke-linecap="round" stroke-linejoin="round"/><path id="Path_5" fill-rule="evenodd" clip-rule="evenodd" d="M804.758 498.62C772.017 452.135 676.911 462.262 655.638 504.282C634.364 546.302 711.353 605 758.084 605C804.814 605 837.499 545.106 804.758 498.62Z" stroke="black" stroke-width="8" stroke-linecap="round" stroke-linejoin="round"/></g></g>    </g><g id="notion-avatar-hair">      <!--?xml version="1.0" encoding="UTF-8"?-->    <title>Hairstyle/ 2</title>    <g id="Hairstyle/-2" stroke="none" stroke-width="1" fill="none" fill-rule="evenodd" stroke-linecap="round" stroke-linejoin="round">        <path d="M636.531474,228.13477 C670.857169,243.665431 725.166891,296.973952 803.404132,362.491755 C816.410437,373.383557 842.942393,382.552972 883,390 C833,450 743,477.333333 613,472 C597.305444,471.356121 543.630254,458.087156 492.399654,439.221249 C490.674088,440.747431 489.403098,442.447013 488.585977,444.319039 C481.862828,459.721787 473.793564,504.295236 452,523 C430.206436,541.704764 398.15684,567.305201 392,580 C387.89544,588.463199 384.89544,616.463199 383,664 C365.62738,629.354885 351.294047,603.688218 340,587 C328.705953,570.311782 314.039287,563.645115 296,567 C252.289371,507.327044 242.173623,447.90566 265.652755,388.735849 C283.709479,343.23106 309.577414,319.996228 343.256562,319.031353 C343.002974,315.496838 343.314634,311.930931 344.17011,308.217487 C349.553099,284.851055 396,239 433,221 C470,203 527.562365,178.831697 636.531474,228.13477 Z" id="Combined-Shape" stroke="#000000" stroke-width="12" fill="#000000"/>    </g>    </g><g id="notion-avatar-accessories">      <!--?xml version="1.0" encoding="UTF-8"?-->    <title>Accessories/ 0</title>    <g id="Accessories/-0" stroke="none" stroke-width="1" fill="none" fill-rule="evenodd"/>    </g><g id="notion-avatar-details">      <!--?xml version="1.0" encoding="UTF-8"?-->    <title>Details/ 0</title>    <g id="Details/-0" stroke="none" stroke-width="1" fill="none" fill-rule="evenodd"/>    </g><g id="notion-avatar-beard">      <!--?xml version="1.0" encoding="UTF-8"?-->    <title>Beard/ 2</title>    <g id="Beard/-2" stroke="none" stroke-width="1" fill="none" fill-rule="evenodd" stroke-linecap="round" stroke-linejoin="round">        <g id="Group" transform="translate(371.133645, 672.093579)" stroke="#000000" stroke-width="16">            <line x1="266.273341" y1="38.9064208" x2="266.273341" y2="62.9064208" id="Path" transform="translate(266.273341, 50.906421) rotate(5.000000) translate(-266.273341, -50.906421) "/>            <line x1="292.365079" y1="38.9064208" x2="292.365079" y2="62.9064208" id="Path" transform="translate(292.365079, 50.906421) scale(-1, 1) rotate(5.000000) translate(-292.365079, -50.906421) "/>            <line x1="239.557395" y1="40.9064208" x2="239.557395" y2="64.9064208" id="Path" transform="translate(239.557395, 52.906421) rotate(8.000000) translate(-239.557395, -52.906421) "/>            <line x1="319.081025" y1="41.9064208" x2="319.081025" y2="65.9064208" id="Path" transform="translate(319.081025, 53.906421) scale(-1, 1) rotate(8.000000) translate(-319.081025, -53.906421) "/>            <line x1="211.425951" y1="45.8073404" x2="210.217288" y2="63.4360151" id="Path" transform="translate(210.925951, 54.807340) rotate(16.000000) translate(-210.925951, -54.807340) "/>            <line x1="347.507476" y1="50.9064208" x2="347.507476" y2="70.9064208" id="Path" transform="translate(347.507476, 60.906421) scale(-1, 1) rotate(16.000000) translate(-347.507476, -60.906421) "/>            <line x1="181.844559" y1="48.1498621" x2="181.525756" y2="65.6629795" id="Path" transform="translate(182.025756, 56.662979) rotate(19.000000) translate(-182.025756, -56.662979) "/>            <line x1="151.490065" y1="56.7191175" x2="153.222458" y2="74.354276" id="Path" transform="translate(152.696414, 65.497522) rotate(22.000000) translate(-152.696414, -65.497522) "/>            <line x1="122.837706" y1="71.6204191" x2="126.780408" y2="96.0484158" id="Path" transform="translate(124.837706, 84.120419) rotate(22.000000) translate(-124.837706, -84.120419) "/>            <line x1="9.58948596" y1="-1.01442282" x2="5.14322409" y2="11.2015813" id="Path" transform="translate(7.500000, 5.000000) rotate(70.000000) translate(-7.500000, -5.000000) "/>            <line x1="13.9927886" y1="28.4091214" x2="12.0235844" y2="42.5908786" id="Path" transform="translate(13.004093, 35.351932) rotate(70.000000) translate(-13.004093, -35.351932) "/>            <line x1="20.9941812" y1="53.2957181" x2="18.8556925" y2="72.0949718" id="Path" transform="translate(19.994181, 62.795718) rotate(70.000000) translate(-19.994181, -62.795718) "/>            <line x1="28.866355" y1="80.9064208" x2="28.866355" y2="100.906421" id="Path" transform="translate(28.866355, 90.906421) rotate(70.000000) translate(-28.866355, -90.906421) "/>            <line x1="46.1997712" y1="108.632477" x2="50.981151" y2="128.886179" id="Path" transform="translate(48.481151, 118.386179) rotate(70.000000) translate(-48.481151, -118.386179) "/>            <line x1="66.8244792" y1="131.559139" x2="74.1692845" y2="150.617497" id="Path" transform="translate(70.669285, 140.617497) rotate(70.000000) translate(-70.669285, -140.617497) "/>            <line x1="86.8992094" y1="152.384454" x2="97.8335007" y2="167.428388" id="Path" transform="translate(92.333501, 159.428388) rotate(70.000000) translate(-92.333501, -159.428388) "/>            <line x1="114.53737" y1="164.254546" x2="129.592672" y2="175.956143" id="Path" transform="translate(122.092672, 169.956143) rotate(70.000000) translate(-122.092672, -169.956143) "/>            <line x1="146.238529" y1="168.970245" x2="160.954313" y2="178.099239" id="Path" transform="translate(153.454313, 173.099239) rotate(70.000000) translate(-153.454313, -173.099239) "/>            <line x1="174.944456" y1="168.32313" x2="191.788254" y2="177.489712" id="Path" transform="translate(183.288254, 172.489712) rotate(70.000000) translate(-183.288254, -172.489712) "/>            <line x1="204.9014" y1="169.192791" x2="223.711207" y2="173.460538" id="Path" transform="translate(214.271259, 171.040294) rotate(70.000000) translate(-214.271259, -171.040294) "/>            <line x1="234.714972" y1="164.529202" x2="250.464074" y2="165.163612" id="Path" transform="translate(242.733894, 164.396280) rotate(70.000000) translate(-242.733894, -164.396280) "/>            <line x1="260.929106" y1="154.234055" x2="276.136923" y2="153.384181" id="Path" transform="translate(268.630203, 154.095799) rotate(70.000000) translate(-268.630203, -154.095799) "/>            <line x1="286.892662" y1="141.146548" x2="301.056215" y2="139.152378" id="Path" transform="translate(294.049495, 140.363996) rotate(70.000000) translate(-294.049495, -140.363996) "/>        </g>    </g>    </g>      </g>      </svg>